<svg xmlns="http://www.w3.org/2000/svg" viewBox="0 0 271.46 64.16"><title>Asset 1</title><g id="Layer_2" data-name="Layer 2"><g id="LOCKUP_white" data-name="LOCKUP white"><path d="M81.4,32.65a7.05,7.05,0,0,1-1.47-8.88A7.27,7.27,0,0,1,82.5,21.2a6.85,6.85,0,0,1,3.57-1H105.8V25H86.07A2.34,2.34,0,0,0,84.46,29a2.92,2.92,0,0,0,1.52.59,18.49,18.49,0,0,0,2.07.11h.42c1.85,0,3.7,0,5.56,0h.54l2.7-.05,1,0a17.25,17.25,0,0,1,2.34.1,7.89,7.89,0,0,1,2.46.71,6.94,6.94,0,0,1,3.77,5,7.16,7.16,0,0,1-.1,3.16,7,7,0,0,1-1.57,2.93,7.28,7.28,0,0,1-2.39,1.74,6.78,6.78,0,0,1-2.84.61H79.76V39.19H99.89a2.36,2.36,0,0,0,1-4.44,6.2,6.2,0,0,0-2.63-.33l-.93,0-2.76.05h-.55c-1.89,0-3.78,0-5.69,0H88a17.2,17.2,0,0,1-3.27-.25A7.37,7.37,0,0,1,81.4,32.65Z"/><path d="M136.31,28.13a7.62,7.62,0,0,1-1.06,4A8.22,8.22,0,0,1,132.39,35a7.62,7.62,0,0,1-4,1.07h-12v7.89h-4.73V20.24h16.77a7.53,7.53,0,0,1,4,1.07,8.16,8.16,0,0,1,2.86,2.86A7.63,7.63,0,0,1,136.31,28.13ZM116.38,25V31.3h12a3.17,3.17,0,0,0,0-6.33Z"/><path d="M145.78,36v7.89h-4.73V20.24h16.76a7.56,7.56,0,0,1,4,1.07,8.05,8.05,0,0,1,2.85,2.86,7.9,7.9,0,0,1-.15,8.19,8,8,0,0,1-3.2,2.87l4.62,8.61h-5.38L156.34,36Zm0-11.06V31.3h12a3.17,3.17,0,0,0,0-6.33Z"/><path d="M170.64,20.24h4.73V43.92h-4.73Z"/><path d="M184.84,25.9v18h-4.73V20.24h5.74l18.34,18v-18h4.73V43.92h-5.74Z"/><path d="M240.11,20.24V25H229.05v19h-4.73V25H213.66V20.24Z"/><path d="M243.84,34.46V29.72a9.49,9.49,0,0,1,9.46-9.48H262a9.46,9.46,0,0,1,9.47,9.48v4.74A9.46,9.46,0,0,1,262,43.92H253.3a9.49,9.49,0,0,1-9.46-9.46Zm4.73-4.74v4.74a4.75,4.75,0,0,0,4.73,4.73H262a4.75,4.75,0,0,0,4.74-4.73V29.72A4.75,4.75,0,0,0,262,25H253.3a4.75,4.75,0,0,0-4.73,4.75Z"/><path d="M53.47,0H10.69A10.7,10.7,0,0,0,0,10.69V53.47A10.69,10.69,0,0,0,10.69,64.16H53.47a10.69,10.69,0,0,0,10.7-10.69V10.69A10.7,10.7,0,0,0,53.47,0ZM52,42a10.48,10.48,0,0,1-5.74,7,9.57,9.57,0,0,1-4.13.92H13V42.82H42.17a3.29,3.29,0,0,0,2.47-1.17,3.55,3.55,0,0,0,.79-3.07,3.33,3.33,0,0,0-1.75-2.44,8.45,8.45,0,0,0-3.82-.5l-1.35,0c-1.31,0-2.65.06-4,.07h-.79c-2.74,0-5.5,0-8.27,0h-.53a25.74,25.74,0,0,1-4.75-.37,10.22,10.22,0,0,1-7.43-5.93A10.91,10.91,0,0,1,11.8,25a10.49,10.49,0,0,1,1.39-5.35,10.77,10.77,0,0,1,3.72-3.89A9.76,9.76,0,0,1,22.1,14.3H50.74v7.12H22.1a3.23,3.23,0,0,0-2.42,1,3.44,3.44,0,0,0-1,2.51,3.53,3.53,0,0,0,1.1,2.57,4.29,4.29,0,0,0,2.21.9c.9.09,1.9.14,3,.14h.6q4,.07,8.07,0h.79c1.32,0,2.62,0,3.92-.08.45,0,.9,0,1.37,0a24.85,24.85,0,0,1,3.39.15,10.8,10.8,0,0,1,3.58,1.07,10.36,10.36,0,0,1,5.47,7.5A11.39,11.39,0,0,1,52,42Z"/></g></g></svg>